<svg xmlns="http://www.w3.org/2000/svg" xmlns:xlink="http://www.w3.org/1999/xlink" width="800" height="520"><g transform="translate(-220 -60)"><path d="M240 80h280v480H240z" stroke="#000" stroke-width="2" fill="#c7e8ac"/><use xlink:href="#a" transform="matrix(1,0,0,1,245,85) translate(104.57499999999999 14.4)"/><use xlink:href="#b" transform="matrix(1,0,0,1,245,85) translate(154.475 14.4)"/><path d="M260 140h240v400H260z" stroke="#000" stroke-width="2" fill="#e5e5e5"/><use xlink:href="#c" transform="matrix(1,0,0,1,265,145) translate(69.57499999999999 14.4)"/><use xlink:href="#d" transform="matrix(1,0,0,1,265,145) translate(139.475 14.4)"/><path d="M280 290h220v60H280z" stroke="#000" stroke-width="2" fill="#fff"/><use xlink:href="#e" transform="matrix(1,0,0,1,285,295) translate(34.625 28.6)"/><use xlink:href="#f" transform="matrix(1,0,0,1,285,295) translate(109.575 28.6)"/><use xlink:href="#g" transform="matrix(1,0,0,1,285,295) translate(125.575 28.6)"/><path d="M280 365h220v60H280z" stroke="#000" stroke-width="2" fill="#fff"/><use xlink:href="#e" transform="matrix(1,0,0,1,285,370) translate(61.525 28.6)"/><use xlink:href="#h" transform="matrix(1,0,0,1,285,370) translate(136.475 28.6)"/><path d="M280 440h220v60H280z" stroke="#000" stroke-width="2" fill="#fff"/><use xlink:href="#e" transform="matrix(1,0,0,1,285,445) translate(61.05 28.6)"/><use xlink:href="#i" transform="matrix(1,0,0,1,285,445) translate(136 28.6)"/><path d="M720 80h280v480H720z" stroke="#000" stroke-width="2" fill="#c7e8ac"/><use xlink:href="#j" transform="matrix(1,0,0,1,725,85) translate(110.5 14.4)"/><use xlink:href="#k" transform="matrix(1,0,0,1,725,85) translate(147.5 14.4)"/><path d="M740 140h240v400H740z" stroke="#000" stroke-width="2" fill="#e5e5e5"/><use xlink:href="#c" transform="matrix(1,0,0,1,745,145) translate(69.05 14.4)"/><use xlink:href="#l" transform="matrix(1,0,0,1,745,145) translate(138.95 14.4)"/><path d="M740 290h220v60H740z" stroke="#000" stroke-width="2" fill="#fff"/><use xlink:href="#e" transform="matrix(1,0,0,1,745.0000000000001,295) translate(44.6 28.6)"/><use xlink:href="#f" transform="matrix(1,0,0,1,745.0000000000001,295) translate(119.55000000000001 28.6)"/><use xlink:href="#m" transform="matrix(1,0,0,1,745.0000000000001,295) translate(135.55 28.6)"/><path d="M740 365h220v60H740z" stroke="#000" stroke-width="2" fill="#fff"/><use xlink:href="#e" transform="matrix(1,0,0,1,745.0000000000001,370) translate(61.525 28.6)"/><use xlink:href="#n" transform="matrix(1,0,0,1,745.0000000000001,370) translate(136.475 28.6)"/><path d="M740 440h220v60H740z" stroke="#000" stroke-width="2" fill="#fff"/><use xlink:href="#e" transform="matrix(1,0,0,1,745.0000000000001,445) translate(61.05 28.6)"/><use xlink:href="#i" transform="matrix(1,0,0,1,745.0000000000001,445) translate(136 28.6)"/><path d="M500 320h240" stroke="#000" stroke-width="2" fill="none"/><path d="M740 320l-14.27 4.64v-9.28z"/><path d="M740 318.95v2.1L724.73 326v-12zm-13.27 4.3l10.03-3.25-10.03-3.26z"/><path fill="#fff" d="M556.58 309.2h72.95v21.6h-72.95z"/><use xlink:href="#o" transform="matrix(1,0,0,1,556.5783117932149,309.2) translate(0 14.4)"/><path d="M740 395H501" stroke="#000" stroke-width="2" fill="none"/><path d="M515.27 399.64L501 395l14.27-4.64z"/><path d="M516.27 401L500 395.74v-1.46l16.27-5.28zm-12.03-6l10.03 3.26v-6.52z"/><path fill="#fff" d="M585.9 384.2h24v21.6h-24z"/><use xlink:href="#p" transform="matrix(1,0,0,1,585.912762520194,384.2) translate(0 14.4)"/><path fill="#fff" d="M561.95 384.2h72.95v21.6h-72.95z"/><g><use xlink:href="#o" transform="matrix(1,0,0,1,561.9525713516424,384.2) translate(0 14.4)"/></g><path d="M500 470h240" stroke="#000" stroke-width="2" fill="none"/><path d="M740 470l-14.27 4.64v-9.28z"/><path d="M740 468.95v2.1L724.73 476v-12zm-13.27 4.3l10.03-3.25-10.03-3.26z"/><path fill="#fff" d="M565.88 459.2h72.95v21.6h-72.95z"/><g><use xlink:href="#o" transform="matrix(1,0,0,1,565.8836429725363,459.2) translate(0 14.4)"/></g><path d="M280 180h220v60H280z" stroke="#000" stroke-width="2" fill="#fff"/><g><use xlink:href="#q" transform="matrix(1,0,0,1,285,185) translate(48.574999999999996 28.6)"/></g><path d="M740 180h220v60H740z" stroke="#000" stroke-width="2" fill="#fff"/><g><use xlink:href="#q" transform="matrix(1,0,0,1,745.0000000000001,185) translate(48.574999999999996 28.6)"/></g><defs><path d="M127-220V0H93v-220H8v-28h204v28h-85" id="r"/><path d="M106-169C34-169 62-67 57 0H25v-261h32l-1 103c12-21 28-36 61-36 89 0 53 116 60 194h-32v-121c2-32-8-49-39-48" id="s"/><path d="M24-231v-30h32v30H24zM24 0v-190h32V0H24" id="t"/><path d="M117-194c89-4 53 116 60 194h-32v-121c0-31-8-49-39-48C34-167 62-67 57 0H25l-1-190h30c1 10-1 24 2 32 11-22 29-35 61-36" id="u"/><path d="M177-190C167-65 218 103 67 71c-23-6-38-20-44-43l32-5c15 47 100 32 89-28v-30C133-14 115 1 83 1 29 1 15-40 15-95c0-56 16-97 71-98 29-1 48 16 59 35 1-10 0-23 2-32h30zM94-22c36 0 50-32 50-73 0-42-14-75-50-75-39 0-46 34-46 75s6 73 46 73" id="v"/><g id="a"><use transform="matrix(0.05,0,0,0.05,0,0)" xlink:href="#r"/><use transform="matrix(0.05,0,0,0.05,10.950000000000001,0)" xlink:href="#s"/><use transform="matrix(0.05,0,0,0.05,20.950000000000003,0)" xlink:href="#t"/><use transform="matrix(0.05,0,0,0.05,24.900000000000002,0)" xlink:href="#u"/><use transform="matrix(0.05,0,0,0.05,34.900000000000006,0)" xlink:href="#v"/></g><path d="M209 0H11v-25l151-195H24v-28h176v25L50-27h159V0" id="w"/><use transform="matrix(0.05,0,0,0.05,0,0)" xlink:href="#w" id="b"/><path d="M185-189c-5-48-123-54-124 2 14 75 158 14 163 119 3 78-121 87-175 55-17-10-28-26-33-46l33-7c5 56 141 63 141-1 0-78-155-14-162-118-5-82 145-84 179-34 5 7 8 16 11 25" id="x"/><path d="M100-194c63 0 86 42 84 106H49c0 40 14 67 53 68 26 1 43-12 49-29l28 8c-11 28-37 45-77 45C44 4 14-33 15-96c1-61 26-98 85-98zm52 81c6-60-76-77-97-28-3 7-6 17-6 28h103" id="y"/><path d="M114-163C36-179 61-72 57 0H25l-1-190h30c1 12-1 29 2 39 6-27 23-49 58-41v29" id="z"/><path d="M108 0H70L1-190h34L89-25l56-165h34" id="A"/><path d="M96-169c-40 0-48 33-48 73s9 75 48 75c24 0 41-14 43-38l32 2c-6 37-31 61-74 61-59 0-76-41-82-99-10-93 101-131 147-64 4 7 5 14 7 22l-32 3c-4-21-16-35-41-35" id="B"/><g id="c"><use transform="matrix(0.05,0,0,0.05,0,0)" xlink:href="#x"/><use transform="matrix(0.05,0,0,0.05,12,0)" xlink:href="#y"/><use transform="matrix(0.05,0,0,0.05,22,0)" xlink:href="#z"/><use transform="matrix(0.05,0,0,0.05,27.950000000000003,0)" xlink:href="#A"/><use transform="matrix(0.05,0,0,0.05,36.95,0)" xlink:href="#t"/><use transform="matrix(0.05,0,0,0.05,40.900000000000006,0)" xlink:href="#B"/><use transform="matrix(0.05,0,0,0.05,49.900000000000006,0)" xlink:href="#y"/></g><path d="M27 0v-27h64v-190l-56 39v-29l58-41h29v221h61V0H27" id="C"/><g id="d"><use transform="matrix(0.05,0,0,0.05,0,0)" xlink:href="#w"/><use transform="matrix(0.05,0,0,0.05,10.950000000000001,0)" xlink:href="#C"/></g><path d="M33 0v-248h34V0H33" id="D"/><path d="M59-47c-2 24 18 29 38 22v24C64 9 27 4 27-40v-127H5v-23h24l9-43h21v43h35v23H59v120" id="E"/><path d="M101-234c-31-9-42 10-38 44h38v23H63V0H32v-167H5v-23h27c-7-52 17-82 69-68v24" id="F"/><path d="M141-36C126-15 110 5 73 4 37 3 15-17 15-53c-1-64 63-63 125-63 3-35-9-54-41-54-24 1-41 7-42 31l-33-3c5-37 33-52 76-52 45 0 72 20 72 64v82c-1 20 7 32 28 27v20c-31 9-61-2-59-35zM48-53c0 20 12 33 32 33 41-3 63-29 60-74-43 2-92-5-92 41" id="G"/><g id="e"><use transform="matrix(0.05,0,0,0.05,0,0)" xlink:href="#D"/><use transform="matrix(0.05,0,0,0.05,5,0)" xlink:href="#u"/><use transform="matrix(0.05,0,0,0.05,15,0)" xlink:href="#E"/><use transform="matrix(0.05,0,0,0.05,20,0)" xlink:href="#y"/><use transform="matrix(0.05,0,0,0.05,30,0)" xlink:href="#z"/><use transform="matrix(0.05,0,0,0.05,35.95,0)" xlink:href="#F"/><use transform="matrix(0.05,0,0,0.05,40.95,0)" xlink:href="#G"/><use transform="matrix(0.05,0,0,0.05,50.95,0)" xlink:href="#B"/><use transform="matrix(0.05,0,0,0.05,59.95,0)" xlink:href="#y"/></g><path d="M205 0l-28-72H64L36 0H1l101-248h38L239 0h-34zm-38-99l-47-123c-12 45-31 82-46 123h93" id="H"/><use transform="matrix(0.05,0,0,0.05,0,0)" xlink:href="#H" id="f"/><path d="M87 75C49 33 22-17 22-94c0-76 28-126 65-167h31c-38 41-64 92-64 168S80 34 118 75H87" id="I"/><path d="M140-251c81 0 123 46 123 126C263-46 219 4 140 4 59 4 17-45 17-125s42-126 123-126zm0 227c63 0 89-41 89-101s-29-99-89-99c-61 0-89 39-89 99S79-25 140-24" id="J"/><path d="M232-93c-1 65-40 97-104 97C67 4 28-28 28-90v-158h33c8 89-33 224 67 224 102 0 64-133 71-224h33v155" id="K"/><path d="M33-261c38 41 65 92 65 168S71 34 33 75H2C39 34 66-17 66-93S39-220 2-261h31" id="L"/><g id="g"><use transform="matrix(0.05,0,0,0.05,0,0)" xlink:href="#I"/><use transform="matrix(0.05,0,0,0.05,5.95,0)" xlink:href="#J"/><use transform="matrix(0.05,0,0,0.05,19.95,0)" xlink:href="#K"/><use transform="matrix(0.05,0,0,0.05,32.9,0)" xlink:href="#r"/><use transform="matrix(0.05,0,0,0.05,43.85,0)" xlink:href="#L"/></g><path d="M160-131c35 5 61 23 61 61C221 17 115-2 30 0v-248c76 3 177-17 177 60 0 33-19 50-47 57zm-97-11c50-1 110 9 110-42 0-47-63-36-110-37v79zm0 115c55-2 124 14 124-45 0-56-70-42-124-44v89" id="M"/><use transform="matrix(0.05,0,0,0.05,0,0)" xlink:href="#M" id="h"/><path d="M212-179c-10-28-35-45-73-45-59 0-87 40-87 99 0 60 29 101 89 101 43 0 62-24 78-52l27 14C228-24 195 4 139 4 59 4 22-46 18-125c-6-104 99-153 187-111 19 9 31 26 39 46" id="N"/><use transform="matrix(0.05,0,0,0.05,0,0)" xlink:href="#N" id="i"/><path d="M115-194c55 1 70 41 70 98S169 2 115 4C84 4 66-9 55-30l1 105H24l-1-265h31l2 30c10-21 28-34 59-34zm-8 174c40 0 45-34 45-75s-6-73-45-74c-42 0-51 32-51 76 0 43 10 73 51 73" id="O"/><g id="j"><use transform="matrix(0.05,0,0,0.05,0,0)" xlink:href="#H"/><use transform="matrix(0.05,0,0,0.05,12,0)" xlink:href="#O"/><use transform="matrix(0.05,0,0,0.05,22,0)" xlink:href="#O"/></g><path d="M195 0l-74-108L45 0H8l94-129-87-119h37l69 98 67-98h37l-84 118L233 0h-38" id="P"/><use transform="matrix(0.05,0,0,0.05,0,0)" xlink:href="#P" id="k"/><g id="l"><use transform="matrix(0.05,0,0,0.05,0,0)" xlink:href="#P"/><use transform="matrix(0.05,0,0,0.05,12,0)" xlink:href="#C"/></g><path d="M190 0L58-211 59 0H30v-248h39L202-35l-2-213h31V0h-41" id="Q"/><g id="m"><use transform="matrix(0.05,0,0,0.05,0,0)" xlink:href="#I"/><use transform="matrix(0.05,0,0,0.05,5.95,0)" xlink:href="#D"/><use transform="matrix(0.05,0,0,0.05,10.95,0)" xlink:href="#Q"/><use transform="matrix(0.05,0,0,0.05,23.9,0)" xlink:href="#L"/></g><use transform="matrix(0.05,0,0,0.05,0,0)" xlink:href="#M" id="n"/><path d="M240 0l2-218c-23 76-54 145-80 218h-23L58-218 59 0H30v-248h44l77 211c21-75 51-140 76-211h43V0h-30" id="R"/><path d="M135-143c-3-34-86-38-87 0 15 53 115 12 119 90S17 21 10-45l28-5c4 36 97 45 98 0-10-56-113-15-118-90-4-57 82-63 122-42 12 7 21 19 24 35" id="S"/><g id="o"><use transform="matrix(0.05,0,0,0.05,0,0)" xlink:href="#R"/><use transform="matrix(0.05,0,0,0.05,14.950000000000001,0)" xlink:href="#y"/><use transform="matrix(0.05,0,0,0.05,24.950000000000003,0)" xlink:href="#S"/><use transform="matrix(0.05,0,0,0.05,33.95,0)" xlink:href="#S"/><use transform="matrix(0.05,0,0,0.05,42.95,0)" xlink:href="#G"/><use transform="matrix(0.05,0,0,0.05,52.95,0)" xlink:href="#v"/><use transform="matrix(0.05,0,0,0.05,62.95,0)" xlink:href="#y"/></g><path d="M30 0v-248h187v28H63v79h144v27H63v87h162V0H30" id="T"/><path d="M137 0h-34L2-248h35l83 218 83-218h36" id="U"/><g id="p"><use transform="matrix(0.05,0,0,0.05,0,0)" xlink:href="#T"/><use transform="matrix(0.05,0,0,0.05,12,0)" xlink:href="#U"/></g><path d="M85-194c31 0 48 13 60 33l-1-100h32l1 261h-30c-2-10 0-23-3-31C134-8 116 4 85 4 32 4 16-35 15-94c0-66 23-100 70-100zm9 24c-40 0-46 34-46 75 0 40 6 74 45 74 42 0 51-32 51-76 0-42-9-74-50-73" id="V"/><path d="M0 4l72-265h28L28 4H0" id="W"/><path d="M100-194c62-1 85 37 85 99 1 63-27 99-86 99S16-35 15-95c0-66 28-99 85-99zM99-20c44 1 53-31 53-75 0-43-8-75-51-75s-53 32-53 75 10 74 51 75" id="X"/><g id="q"><use transform="matrix(0.05,0,0,0.05,0,0)" xlink:href="#H"/><use transform="matrix(0.05,0,0,0.05,12,0)" xlink:href="#V"/><use transform="matrix(0.05,0,0,0.05,22,0)" xlink:href="#V"/><use transform="matrix(0.05,0,0,0.05,32,0)" xlink:href="#z"/><use transform="matrix(0.05,0,0,0.05,37.95,0)" xlink:href="#y"/><use transform="matrix(0.05,0,0,0.05,47.95,0)" xlink:href="#S"/><use transform="matrix(0.05,0,0,0.05,56.95,0)" xlink:href="#S"/><use transform="matrix(0.05,0,0,0.05,65.95,0)" xlink:href="#W"/><use transform="matrix(0.05,0,0,0.05,70.95,0)" xlink:href="#r"/><use transform="matrix(0.05,0,0,0.05,79.9,0)" xlink:href="#X"/><use transform="matrix(0.05,0,0,0.05,89.9,0)" xlink:href="#O"/><use transform="matrix(0.05,0,0,0.05,99.9,0)" xlink:href="#t"/><use transform="matrix(0.05,0,0,0.05,103.85000000000001,0)" xlink:href="#B"/></g></defs></g></svg>